<?xml version="1.0" encoding="UTF-8" standalone="no"?>
<!-- Created with Inkscape (http://www.inkscape.org/) -->

<svg
   xmlns:dc="http://purl.org/dc/elements/1.1/"
   xmlns:cc="http://creativecommons.org/ns#"
   xmlns:rdf="http://www.w3.org/1999/02/22-rdf-syntax-ns#"
   xmlns:svg="http://www.w3.org/2000/svg"
   xmlns="http://www.w3.org/2000/svg"
   xmlns:sodipodi="http://sodipodi.sourceforge.net/DTD/sodipodi-0.dtd"
   xmlns:inkscape="http://www.inkscape.org/namespaces/inkscape"
   width="98.790321mm"
   height="116.11633mm"
   viewBox="0 0 98.790321 116.11633"
   version="1.1"
   id="svg8"
   inkscape:version="0.92.4 (5da689c313, 2019-01-14)"
   sodipodi:docname="title.svg">
  <defs
     id="defs2">
    <marker
       inkscape:stockid="Arrow1Lstart"
       orient="auto"
       refY="0"
       refX="0"
       id="Arrow1Lstart"
       style="overflow:visible"
       inkscape:isstock="true">
      <path
         id="path1446"
         d="M 0,0 5,-5 -12.5,0 5,5 Z"
         style="fill:#b68730;fill-opacity:1;fill-rule:evenodd;stroke:#b68730;stroke-width:1.00000003pt;stroke-opacity:1"
         transform="matrix(0.8,0,0,0.8,10,0)"
         inkscape:connector-curvature="0" />
    </marker>
    <inkscape:perspective
       sodipodi:type="inkscape:persp3d"
       inkscape:vp_x="0 : 70.053298 : 1"
       inkscape:vp_y="0 : 999.99998 : 0"
       inkscape:vp_z="103.79055 : 70.053298 : 1"
       inkscape:persp3d-origin="51.895274 : 46.702199 : 1"
       id="perspective841" />
  </defs>
  <sodipodi:namedview
     id="base"
     pagecolor="#ffffff"
     bordercolor="#666666"
     borderopacity="1.0"
     inkscape:pageopacity="0.0"
     inkscape:pageshadow="2"
     inkscape:zoom="1.979899"
     inkscape:cx="326.84001"
     inkscape:cy="179.73073"
     inkscape:document-units="mm"
     inkscape:current-layer="layer1"
     showgrid="false"
     inkscape:window-width="2560"
     inkscape:window-height="1377"
     inkscape:window-x="-8"
     inkscape:window-y="-8"
     inkscape:window-maximized="1" />
  <metadata
     id="metadata5">
    <rdf:RDF>
      <cc:Work
         rdf:about="">
        <dc:format>image/svg+xml</dc:format>
        <dc:type
           rdf:resource="http://purl.org/dc/dcmitype/StillImage" />
        <dc:title></dc:title>
      </cc:Work>
    </rdf:RDF>
  </metadata>
  <g
     inkscape:label="Layer 1"
     inkscape:groupmode="layer"
     id="layer1"
     transform="translate(-67.983826,-91.078341)">
    <path
       inkscape:connector-curvature="0"
       style="clip-rule:evenodd;fill:#f6d2a2;fill-rule:evenodd;stroke:#000000;stroke-width:0.53611124;stroke-linecap:round"
       d="m 96.992122,164.56063 c 0.137739,2.79007 2.974536,1.4991 4.259428,0.62689 1.21964,-0.82811 1.57624,-0.13976 1.68333,-1.77401 0.0701,-1.07415 0.19615,-2.14831 0.13414,-3.22671 -1.84433,-0.1642 -3.850369,0.2673 -5.362425,1.34659 -0.778835,0.55603 -2.23915,2.33075 -0.714473,3.02724"
       id="path2" />
    <path
       inkscape:connector-curvature="0"
       style="clip-rule:evenodd;fill:#c6b198;fill-rule:evenodd;stroke:#000000;stroke-width:0.53611124;stroke-linecap:round"
       d="m 96.992122,164.56063 c 0.412855,-0.15091 0.850408,-0.25808 1.130572,-0.62493"
       id="path4" />
    <path
       inkscape:connector-curvature="0"
       style="clip-rule:evenodd;fill:#6ad7e5;fill-rule:evenodd;stroke:#000000;stroke-width:0.55468911;stroke-linecap:round"
       d="m 103.8777,131.31245 c -11.537981,-3.02933 -2.9585,-16.73383 6.30679,-11.09699 z"
       id="path6" />
    <path
       inkscape:connector-curvature="0"
       style="clip-rule:evenodd;fill:#6ad7e5;fill-rule:evenodd;stroke:#000000;stroke-width:0.54362571;stroke-linecap:round"
       d="m 151.84606,118.99516 c 8.6045,-6.10575 16.38004,7.66993 6.37995,11.13598 z"
       id="path8" />
    <path
       inkscape:connector-curvature="0"
       style="clip-rule:evenodd;fill:#f6d2a2;fill-rule:evenodd;stroke:#000000;stroke-width:0.53611124;stroke-linecap:round"
       d="m 153.33629,198.5441 c 2.18561,1.32869 6.18056,5.34631 2.90188,7.29445 -3.15031,2.83399 -4.9135,-3.11068 -7.67855,-3.93437 1.19079,-1.5889 2.70014,-3.03769 4.77667,-3.36008 z"
       id="path10" />
    <path
       inkscape:connector-curvature="0"
       style="clip-rule:evenodd;fill:none;fill-rule:evenodd;stroke:#000000;stroke-width:0.57497346;stroke-linecap:round"
       d="m 156.21855,205.81913 c -0.58005,-0.91527 -0.77476,-1.98352 -1.74317,-2.72123"
       id="path12" />
    <path
       inkscape:connector-curvature="0"
       style="clip-rule:evenodd;fill:#f6d2a2;fill-rule:evenodd;stroke:#000000;stroke-width:0.53611124;stroke-linecap:round"
       d="m 114.77899,202.67956 c -2.56529,0.39006 -4.0092,2.66394 -6.14775,3.81869 -2.01523,1.18061 -2.78613,-0.37801 -2.96768,-0.69437 -0.31586,-0.14153 -0.28936,0.13179 -0.77685,-0.35055 -1.86812,-2.89688 1.94654,-5.01436 3.93293,-6.45341 2.76667,-0.54947 4.50047,1.80714 5.95935,3.67964 z"
       id="path14" />
    <path
       inkscape:connector-curvature="0"
       style="clip-rule:evenodd;fill:none;fill-rule:evenodd;stroke:#000000;stroke-width:0.57608175;stroke-linecap:round"
       d="m 105.68332,205.78405 c 0.12613,-0.9877 1.27613,-1.64912 1.82391,-2.48422"
       id="path16" />
    <path
       inkscape:connector-curvature="0"
       style="clip-rule:evenodd;fill-rule:evenodd;stroke-width:0.17870376"
       d="m 104.13023,127.44359 c -1.43417,-0.74539 -2.48632,-1.75772 -1.60905,-3.38754 0.81219,-1.50884 2.321,-1.34499 3.75535,-0.59961 z"
       id="path18" />
    <path
       inkscape:connector-curvature="0"
       style="clip-rule:evenodd;fill-rule:evenodd;stroke-width:0.19212092"
       d="m 156.16379,126.15303 c 1.57012,-0.78693 2.722,-1.85567 1.76157,-3.57633 -0.88917,-1.59293 -2.541,-1.41994 -4.11131,-0.63302 z"
       id="path20" />
    <path
       inkscape:connector-curvature="0"
       style="clip-rule:evenodd;fill:#f6d2a2;fill-rule:evenodd;stroke:#000000;stroke-width:0.54811496;stroke-linecap:round"
       d="m 165.81098,164.18527 c -0.1422,2.82473 -3.07107,1.51772 -4.39765,0.63467 -1.25922,-0.83839 -1.6274,-0.1415 -1.73796,-1.79606 -0.0724,-1.08749 -0.20253,-2.17499 -0.13849,-3.2668 1.90418,-0.16624 3.97532,0.27063 5.53644,1.36333 0.80394,0.56293 2.31183,2.3597 0.73766,3.06486"
       id="path22" />
    <path
       inkscape:connector-curvature="0"
       style="clip-rule:evenodd;fill:#c6b198;fill-rule:evenodd;stroke:#000000;stroke-width:0.57810915;stroke-linecap:round"
       d="m 165.81098,164.18527 c -0.51472,-0.14076 -1.06024,-0.24071 -1.40954,-0.58286"
       id="path24" />
    <g
       transform="matrix(0.18029085,0,0,0.1760486,95.073938,111.34608)"
       id="g28">
      <path
         d="m 195.512,13.124 c 60.365,0 116.953,8.633 146.452,66.629 26.478,65.006 17.062,135.104 21.1,203.806 3.468,58.992 11.157,127.145 -16.21,181.812 -28.79,57.514 -100.73,71.982 -160,69.863 C 140.299,533.568 84.06,518.38 57.785,475.845 26.959,425.945 41.553,351.747 43.792,296.223 46.444,230.452 25.977,164.481 47.584,100.122 69.999,33.359 130.451,18.271 195.512,13.124"
         id="path26"
         inkscape:connector-curvature="0"
         style="clip-rule:evenodd;fill:#6ad7e5;fill-rule:evenodd;stroke:#000000;stroke-width:3;stroke-linecap:round" />
    </g>
    <path
       inkscape:connector-curvature="0"
       style="clip-rule:evenodd;fill:#ffffff;fill-rule:evenodd;stroke:#000000;stroke-width:0.52512908;stroke-linecap:round"
       d="m 131.92544,127.98416 c 1.98804,11.19952 20.87861,8.23837 18.16528,-3.05696 -2.43304,-10.12886 -18.826,-7.32521 -18.16528,3.05696"
       id="path30" />
    <path
       inkscape:connector-curvature="0"
       style="clip-rule:evenodd;fill:#ffffff;fill-rule:evenodd;stroke:#000000;stroke-width:0.5060181;stroke-linecap:round"
       d="m 110.05889,129.79269 c 2.54128,9.75238 18.42848,7.25552 17.82965,-2.52709 -0.7175,-11.71619 -20.2593,-9.45545 -17.82965,2.52709"
       id="path32" />
    <path
       inkscape:connector-curvature="0"
       style="clip-rule:evenodd;fill:#ffffff;fill-rule:evenodd;stroke:#000000;stroke-width:0.54570735;stroke-linecap:round"
       d="m 134.48435,141.44198 c 0.008,1.50331 0.33552,3.1911 0.0562,4.7904 -0.37698,0.72533 -1.11651,0.80205 -1.754,1.09515 -0.8816,-0.14078 -1.62293,-0.7301 -1.97647,-1.56958 -0.22626,-1.82543 0.0844,-3.59285 0.14152,-5.41902 z"
       id="path34" />
    <g
       transform="matrix(0.19548284,0,0,0.17713561,94.198478,107.62843)"
       id="g40">
      <ellipse
         cx="107.324"
         cy="95.403999"
         rx="14.829"
         ry="16.062"
         id="ellipse36"
         style="clip-rule:evenodd;fill-rule:evenodd" />
      <ellipse
         cx="100.65498"
         cy="88.49324"
         rx="3.4960001"
         ry="4.0819998"
         id="ellipse38"
         style="clip-rule:evenodd;fill:#ffffff;fill-rule:evenodd" />
    </g>
    <g
       transform="matrix(0.1913247,0,0,0.17713561,93.208807,107.62843)"
       id="g46">
      <ellipse
         cx="231.571"
         cy="91.403999"
         rx="14.582"
         ry="16.062"
         id="ellipse42"
         style="clip-rule:evenodd;fill-rule:evenodd" />
      <ellipse
         cx="225.98013"
         cy="85.160065"
         rx="3.438"
         ry="4.0819998"
         id="ellipse44"
         style="clip-rule:evenodd;fill:#ffffff;fill-rule:evenodd" />
    </g>
    <path
       inkscape:connector-curvature="0"
       style="clip-rule:evenodd;fill:#ffffff;fill-rule:evenodd;stroke:#000000;stroke-width:0.55816847;stroke-linecap:round"
       d="m 126.84438,141.32909 c -1.16645,3.01074 0.65047,9.03125 3.81539,4.5906 -0.22626,-1.90975 0.0844,-3.75882 0.14152,-5.66932 z"
       id="path48" />
    <g
       transform="matrix(0.1842781,0,0,0.17713561,94.11675,111.33262)"
       id="g54">
      <path
         d="m 178.431,138.673 c -12.059,1.028 -21.916,15.366 -15.646,26.709 8.303,15.024 26.836,-1.329 38.379,0.203 13.285,0.272 24.17,14.047 34.84,2.49 11.867,-12.854 -5.109,-25.373 -18.377,-30.97 z"
         id="path50"
         inkscape:connector-curvature="0"
         style="clip-rule:evenodd;fill:#f6d2a2;fill-rule:evenodd;stroke:#231f20;stroke-width:3;stroke-linecap:round" />
      <path
         d="m 176.913,138.045 c -0.893,-20.891 38.938,-23.503 43.642,-6.016 4.692,17.446 -41.681,21.498 -43.642,6.016 -1.565,-12.363 0,0 0,0 z"
         id="path52"
         inkscape:connector-curvature="0"
         style="clip-rule:evenodd;fill-rule:evenodd" />
    </g>
    <path
       style="fill:none;stroke:#b68730;stroke-width:1.76499999;stroke-linecap:round;stroke-linejoin:miter;stroke-miterlimit:3.4000001;stroke-dasharray:none;stroke-opacity:1;paint-order:markers fill stroke"
       d="M 84.717292,114.02319 97.593477,164.427"
       id="path1444"
       inkscape:connector-curvature="0"
       sodipodi:nodetypes="cc" />
    <g
       id="g1220"
       transform="translate(-4.6772168,3.4745039)">
      <rect
         y="87.753838"
         x="72.811043"
         height="22.867559"
         width="36.285713"
         id="rect857"
         style="opacity:1;fill:#f3dec8;fill-opacity:1;fill-rule:evenodd;stroke:#a36e03;stroke-width:0.30000001;stroke-linecap:round;stroke-linejoin:bevel;stroke-miterlimit:4;stroke-dasharray:none;stroke-opacity:0.95959598;paint-order:normal" />
      <text
         transform="scale(1.1532953,0.86708062)"
         id="text877"
         y="117.4185"
         x="66.419785"
         style="font-style:normal;font-variant:normal;font-weight:normal;font-stretch:normal;font-size:10.34606552px;line-height:1.25;font-family:'Ink Free';-inkscape-font-specification:'Ink Free, Normal';font-variant-ligatures:normal;font-variant-caps:normal;font-variant-numeric:normal;font-feature-settings:normal;text-align:start;letter-spacing:0px;word-spacing:0px;writing-mode:lr-tb;text-anchor:start;fill:#4229c2;fill-opacity:1;stroke:#0b8c7d;stroke-width:0.25864667;stroke-opacity:0.95959598"
         xml:space="preserve"><tspan
           style="font-style:normal;font-variant:normal;font-weight:normal;font-stretch:normal;font-size:10.34606552px;font-family:'Ink Free';-inkscape-font-specification:'Ink Free, Normal';font-variant-ligatures:normal;font-variant-caps:normal;font-variant-numeric:normal;font-feature-settings:normal;text-align:start;writing-mode:lr-tb;text-anchor:start;fill:#4229c2;fill-opacity:1;stroke:#0b8c7d;stroke-width:0.25864667;stroke-opacity:0.95959598"
           y="117.4185"
           x="66.419785"
           id="tspan875"
           sodipodi:role="line">Golibs</tspan></text>
    </g>
  </g>
</svg>
